<?xml version="1.0" encoding="utf-8"?>
<!-- Generator: Adobe Illustrator 23.0.2, SVG Export Plug-In . SVG Version: 6.00 Build 0)  -->
<svg version="1.1" id="Ebene_1" xmlns="http://www.w3.org/2000/svg" xmlns:xlink="http://www.w3.org/1999/xlink" x="0px" y="0px"
	 viewBox="0 0 490.4 174.4" style="enable-background:new 0 0 490.4 174.4;" xml:space="preserve">
<style type="text/css">
	.st0{fill:#E14E12;}
	.st1{fill:#1A1A1A;}
</style>
<polygon class="st0" points="97.9,0 73.4,97.9 76.1,108.7 76.2,109.1 97.9,22.4 134.4,168.6 91.1,168.6 85.6,168.6 46.2,10.9 
	43.5,0 0,174 5.4,174 54.4,174 59.8,174 75.8,174 74.4,168.6 66.8,168.6 61.3,168.6 61.2,168.6 55.7,168.6 12.4,168.6 7,168.6 
	43.5,22.4 46.2,33.3 67.9,120 70.7,131.2 80,168.6 80,168.6 81.4,174 87,174 92.4,174 141.4,174 "/>
<g>
	<path class="st1" d="M201,79.4l-5.6-9.3c-0.4,0-0.9,0-1.4,0h-7.3v9.3h-5.2V48.6h12.5c7.9,0,12.4,3.8,12.4,10.5
		c0,4.9-2.3,8.4-6.4,10l6.9,10.3H201z M193.9,65.5c4.8,0,7.5-2,7.5-6.2c0-4-2.7-6-7.5-6h-7.3v12.2H193.9z"/>
	<path class="st1" d="M233.5,69.6h-17.7c0.8,3.6,3.6,5.9,7.3,5.9c2.6,0,4.9-1,6.6-2.7l2.7,2.9c-2.3,2.5-5.6,4-9.7,4
		c-7.2,0-12-4.8-12-11.8c0-7.1,4.9-11.9,11.8-11.9C230.8,55.8,234.1,61.2,233.5,69.6z M229.1,65.9c-0.2-3.8-2.7-6.1-6.5-6.1
		c-3.7,0-6.3,2.3-6.9,6.1H229.1z"/>
	<path class="st1" d="M259.9,56v21.1c0,6.7-4.8,11-12.1,11c-3.7,0-6.9-1.1-9.7-3.1l2.2-3.7c2.2,1.6,4.5,2.6,7.3,2.6
		c4.4,0,7.3-2.6,7.3-6.6v-2.9c-1.6,2.6-4.2,4-7.7,4c-6.3,0-10.6-4.6-10.6-11.3c0-6.6,4.2-11.1,10.4-11.1c3.6,0,6.3,1.4,7.9,4V56
		H259.9z M254.9,67.1c0-4.2-2.8-7.2-6.7-7.2c-4,0-6.8,3-6.8,7.2c0,4.2,2.8,7.2,6.8,7.2C252.1,74.3,254.9,71.3,254.9,67.1z"/>
	<path class="st1" d="M287.5,69.6h-17.7c0.8,3.6,3.6,5.9,7.3,5.9c2.6,0,4.9-1,6.6-2.7l2.7,2.9c-2.3,2.5-5.6,4-9.7,4
		c-7.2,0-12-4.8-12-11.8c0-7.1,4.9-11.9,11.8-11.9C284.8,55.8,288.2,61.2,287.5,69.6z M283.1,65.9c-0.2-3.8-2.7-6.1-6.5-6.1
		c-3.7,0-6.3,2.3-6.9,6.1H283.1z"/>
	<path class="st1" d="M315.2,64.8v14.6h-5.1V66.3c0-3.5-2.1-5.7-5.6-5.7c-3.9,0-6.3,2.7-6.6,6.4v12.5h-5.1V56h5.1v4.5
		c1.7-3.3,4.7-4.7,8.6-4.7C312,55.8,315.2,59.3,315.2,64.8z"/>
	<path class="st1" d="M328.6,59.8c-2,0-3.4,0.7-3.4,2.3c0,4.3,12.5,2,12.4,10.5c0,4.8-4.3,7-9,7c-3.4,0-7.1-1.1-9.4-3.3l1.8-3.6
		c2,1.8,5.3,2.9,7.8,2.9c2.2,0,3.8-0.7,3.8-2.5c0-4.8-12.3-2.1-12.3-10.6c0-4.8,4.1-6.8,8.6-6.8c2.9,0,6.1,0.9,8.2,2.4l-1.8,3.7
		C333.3,60.6,330.7,59.8,328.6,59.8z"/>
	<path class="st1" d="M367.3,67.8c0,7-4.4,11.8-11.1,11.8c-3.7,0-6.6-1.5-8.3-4.2v4h-5.1V46.8h5.1V60c1.7-2.7,4.5-4.2,8.2-4.2
		C362.8,55.8,367.3,60.7,367.3,67.8z M362.2,67.6c0-4.4-2.9-7.6-7.1-7.6s-7.1,3.2-7.1,7.6c0,4.5,2.9,7.7,7.1,7.7
		S362.2,72.1,362.2,67.6z"/>
	<path class="st1" d="M393.9,56v23.4h-5.1v-4.6c-1.6,3.3-4.5,4.7-8.4,4.8c-5.4,0-8.6-3.4-8.6-9V56h5.1v13.2c0,3.5,2.1,5.7,5.5,5.7
		c4-0.1,6.4-3.2,6.4-7.3V56H393.9z"/>
	<path class="st1" d="M414.5,55.8v4.8c-4.7-0.3-7.7,2.5-8.1,6.5v12.2h-5.1V56h5.1v4.7C408,57.5,410.8,55.8,414.5,55.8z"/>
	<path class="st1" d="M439.8,56v21.1c0,6.7-4.8,11-12.1,11c-3.7,0-6.9-1.1-9.7-3.1l2.2-3.7c2.2,1.6,4.5,2.6,7.3,2.6
		c4.4,0,7.3-2.6,7.3-6.6v-2.9c-1.6,2.6-4.2,4-7.7,4c-6.3,0-10.6-4.6-10.6-11.3c0-6.6,4.2-11.1,10.4-11.1c3.6,0,6.3,1.4,7.9,4V56
		H439.8z M434.8,67.1c0-4.2-2.8-7.2-6.7-7.2c-4,0-6.8,3-6.8,7.2c0,4.2,2.8,7.2,6.8,7.2C432,74.3,434.8,71.3,434.8,67.1z"/>
	<path class="st1" d="M467.4,69.6h-17.7c0.8,3.6,3.6,5.9,7.3,5.9c2.6,0,4.9-1,6.6-2.7l2.7,2.9c-2.3,2.5-5.6,4-9.7,4
		c-7.2,0-12-4.8-12-11.8c0-7.1,4.9-11.9,11.8-11.9C464.7,55.8,468,61.2,467.4,69.6z M463,65.9c-0.2-3.8-2.7-6.1-6.5-6.1
		c-3.7,0-6.3,2.3-6.9,6.1H463z"/>
	<path class="st1" d="M485.9,55.8v4.8c-4.7-0.3-7.7,2.5-8.1,6.5v12.2h-5.1V56h5.1v4.7C479.3,57.5,482.2,55.8,485.9,55.8z"/>
	<path class="st1" d="M186.6,96.6v30.8h-5.2V96.6H186.6z"/>
	<path class="st1" d="M215.7,96.6v4.7H206v26.1h-5.2v-26.1h-9.7v-4.7H215.7z"/>
	<path class="st1" d="M229.6,112.3v3.5h-10.8v-3.5H229.6z"/>
	<path class="st1" d="M246.1,101.3c-3,0-5,1.1-5,3.2c0,6.7,16.6,3.1,16.6,14.2c0,5.5-4.8,8.9-11.6,8.9c-4.8,0-9.4-2-12.6-4.9
		l2.2-4.5c3.2,2.9,7.1,4.5,10.4,4.5c3.6,0,5.8-1.4,5.8-3.7c0-6.9-16.6-3-16.6-14c0-5.3,4.5-8.6,11.2-8.6c4,0,7.9,1.3,10.8,3.2
		l-2.2,4.6C251.8,102.1,248.4,101.3,246.1,101.3z"/>
	<path class="st1" d="M285.7,115.7c0,7.1-5,11.9-12.2,11.9c-7.3,0-12.2-4.8-12.2-11.9c0-7,5-11.8,12.2-11.8
		C280.7,103.8,285.7,108.6,285.7,115.7z M266.3,115.7c0,4.5,2.9,7.6,7.2,7.6c4.2,0,7.1-3.1,7.1-7.6c0-4.5-2.9-7.6-7.1-7.6
		C269.2,108.1,266.3,111.3,266.3,115.7z"/>
	<path class="st1" d="M296.2,94.8v32.7h-5.1V94.8H296.2z"/>
	<path class="st1" d="M325.2,104v23.4h-5.1v-4.6c-1.6,3.3-4.5,4.7-8.4,4.8c-5.4,0-8.6-3.4-8.6-9V104h5.1v13.2c0,3.5,2.1,5.7,5.5,5.7
		c4-0.1,6.4-3.2,6.4-7.3V104H325.2z"/>
	<path class="st1" d="M345.9,125.9c-1.8,1.1-3.8,1.7-5.8,1.7c-3.5,0-6.6-2-6.6-6.8v-12.1h-3.3v-3.8h3.3v-6.4h5v6.4h6.9v3.8h-6.9
		v11.2c0,2.4,0.9,3.2,2.5,3.2c1.1,0,2.2-0.4,3.5-1L345.9,125.9z"/>
	<path class="st1" d="M356,97.3c0,1.7-1.3,3-2.9,3c-1.7,0-2.9-1.3-2.9-3c0-1.8,1.3-3,2.9-3C354.7,94.3,356,95.5,356,97.3z
		 M355.6,104v23.4h-5V104H355.6z"/>
	<path class="st1" d="M385.3,115.7c0,7.1-5,11.9-12.2,11.9c-7.3,0-12.2-4.8-12.2-11.9c0-7,5-11.8,12.2-11.8
		C380.3,103.8,385.3,108.6,385.3,115.7z M365.9,115.7c0,4.5,2.9,7.6,7.2,7.6c4.2,0,7.1-3.1,7.1-7.6c0-4.5-2.9-7.6-7.1-7.6
		C368.9,108.1,365.9,111.3,365.9,115.7z"/>
	<path class="st1" d="M412.9,112.8v14.6h-5.1v-13.2c0-3.5-2.1-5.7-5.6-5.7c-3.9,0-6.3,2.7-6.6,6.4v12.5h-5.1V104h5.1v4.5
		c1.7-3.3,4.7-4.7,8.6-4.7C409.7,103.8,412.9,107.3,412.9,112.8z"/>
	<path class="st1" d="M426.3,107.8c-2,0-3.4,0.7-3.4,2.3c0,4.3,12.5,2,12.4,10.5c0,4.8-4.3,7-9,7c-3.4,0-7.1-1.1-9.4-3.3l1.8-3.6
		c2,1.8,5.3,2.9,7.8,2.9c2.2,0,3.8-0.7,3.8-2.5c0-4.8-12.3-2.1-12.3-10.6c0-4.8,4.1-6.8,8.6-6.8c2.9,0,6.1,0.9,8.2,2.4l-1.8,3.7
		C431,108.6,428.4,107.8,426.3,107.8z"/>
</g>
</svg>
